<?xml version="1.0" encoding="UTF-8" standalone="no"?>
<!DOCTYPE svg PUBLIC "-//W3C//DTD SVG 1.1//EN" "http://www.w3.org/Graphics/SVG/1.1/DTD/svg11.dtd">
<svg version="1.1" xmlns="http://www.w3.org/2000/svg" xmlns:xlink="http://www.w3.org/1999/xlink" preserveAspectRatio="xMidYMid meet" viewBox="0 0 500 190" width="500" height="190"><defs><path d="M105.92 145.08C105.71 145.74 104.66 149.05 102.76 155.02L118.57 155.02C116.67 148.78 115.62 145.32 115.41 144.63C113.6 138.3 111.79 132.88 110.89 127.92C109.53 133.34 108.18 139.21 105.92 145.08Z" id="bMaVn8xwi"></path><path d="M325.43 122.95L325.43 140.56C333.29 140.56 337.65 140.56 338.53 140.56C345.75 140.56 349.82 137.4 349.82 131.53C349.36 125.66 345.75 122.95 338.07 122.95C336.39 122.95 332.17 122.95 325.43 122.95Z" id="bSCdb0Hg"></path><path d="M325.88 16.36C324.55 16.36 317.93 16.36 306.01 16.36L306.01 39.39C317.93 39.39 324.55 39.39 325.88 39.39C334.01 39.39 338.53 35.33 338.53 27.65C338.53 19.97 334.46 16.36 325.88 16.36Z" id="i8cMLS6YDc"></path><path d="M256.32 145.08C256.11 145.74 255.06 149.05 253.16 155.02L268.97 155.02C267.07 148.78 266.02 145.32 265.81 144.63C264 138.3 262.65 132.88 261.29 127.92C259.94 133.34 258.58 139.21 256.32 145.08Z" id="adisLtU7T"></path><path d="M451.89 145.08C451.68 145.74 450.63 149.05 448.73 155.02L464.54 155.02C462.64 148.78 461.59 145.32 461.38 144.63C459.12 138.3 457.76 132.88 456.86 127.92C455.5 133.34 454.15 139.21 451.89 145.08Z" id="ajYoj5GWG"></path><path d="M426.15 47.52C426.18 47.4 426.33 46.8 426.6 45.71L433.37 45.71L433.37 36.68L426.6 36.68C426.33 35.6 426.18 34.99 426.15 34.87C425.7 31.71 424.34 29 422.53 26.29C422.47 26.2 422.17 25.75 421.63 24.94L426.6 19.97L420.28 13.65L415.31 18.61C414.49 18.07 414.04 17.77 413.95 17.71C411.24 15.9 408.53 15 405.82 14.1C405.7 14.07 405.1 13.92 404.02 13.65L404.02 6.42L395.43 6.42L395.43 13.65C394.35 13.92 393.75 14.07 393.63 14.1C390.92 15 387.76 15.9 385.5 17.71C385.41 17.77 384.96 18.07 384.14 18.61L379.17 13.65L372.85 19.97L377.82 24.94C377.28 25.75 376.98 26.2 376.92 26.29C375.11 29 374.21 31.71 373.3 34.87C373.27 34.99 373.12 35.6 372.85 36.68L366.08 36.68L366.08 45.71L372.85 45.71C373.12 46.8 373.27 47.4 373.3 47.52C373.75 50.68 375.11 53.39 376.92 56.1C376.98 56.19 377.28 56.64 377.82 57.46L372.85 62.43L379.17 68.75L384.14 63.78C384.96 64.32 385.41 64.62 385.5 64.68C388.21 66.49 390.92 67.39 393.63 68.3C393.75 68.33 394.35 68.48 395.43 68.75L395.43 75.98L404.02 75.98L404.02 68.75C405.1 68.48 405.7 68.33 405.82 68.3C408.53 67.39 411.69 66.49 413.95 64.68C414.04 64.62 414.49 64.32 415.31 63.78L420.28 68.75L426.6 62.43L421.63 57.46L422.53 56.1C424.34 52.49 425.54 49.63 426.15 47.52ZM377.82 41.2C377.82 28.55 387.76 18.61 399.5 18.61C411.24 18.61 421.18 28.55 421.18 41.2C421.18 53.39 411.24 63.78 399.5 63.78C387.76 63.78 377.82 53.84 377.82 41.2Z" id="bhiYmN8ll"></path><path d="M382.34 41.2C382.34 51.13 390.01 59.26 399.5 59.26C408.98 59.26 416.66 51.13 416.66 41.2C416.66 31.26 408.98 23.13 399.5 23.13C390.01 23.13 382.34 31.26 382.34 41.2ZM406.73 39.84C405.82 39.84 404.92 39.84 404.02 39.39C403.43 40.02 398.73 45.08 398.14 45.71C399.05 47.97 398.6 51.13 396.79 53.39C396.67 53.51 396.07 54.12 394.98 55.2L391.82 52.04C392.9 50.95 393.51 50.35 393.63 50.23C394.08 49.78 394.08 49.33 394.08 48.88C394.08 48.42 394.08 47.97 393.63 47.52C393.18 47.07 392.72 47.07 392.27 47.07C391.82 47.07 391.37 47.07 390.92 47.52C390.8 47.64 390.19 48.24 389.11 49.33L385.95 46.17C387.03 45.08 387.64 44.48 387.76 44.36C389.56 42.1 392.72 41.65 394.98 43C395.57 42.37 400.27 37.31 400.85 36.68C399.95 34.42 400.4 31.26 402.21 29C402.33 28.88 402.93 28.28 404.02 27.2L407.18 30.36C406.09 31.44 405.49 32.04 405.37 32.16C404.47 33.07 404.47 34.42 405.37 34.87C406.27 35.33 407.18 35.78 408.08 34.87C408.2 34.75 408.8 34.15 409.89 33.07L413.05 36.23L411.24 38.04C409.44 39.24 407.93 39.84 406.73 39.84Z" id="ezUFEXNfj"></path><path d="M40.88 155.47C42.69 153.27 51.72 142.28 67.98 122.5L67.98 107.14L10.17 107.14L10.17 124.3C22.91 124.3 29.98 124.3 31.4 124.3C31.85 124.3 34.11 124.3 38.17 124.3C39.08 124.3 40.43 124.3 42.24 124.3C42.46 124.3 44.27 124.3 44.5 124.3C40.88 127.92 38.17 130.63 36.82 131.98C34.92 134.3 25.44 145.89 8.36 166.76L8.36 182.57L69.79 182.57L69.79 165.4C55.7 165.4 47.87 165.4 46.3 165.4C43.14 165.86 38.17 165.86 31.4 166.31C36.37 160.89 39.53 157.27 40.88 155.47Z" id="hezqXgyp8"></path><path d="M74.76 183.02L93.73 183.02L98.24 169.02L122.63 169.02L127.15 183.02L146.12 183.02L119.47 107.59L101.4 107.59L74.76 183.02ZM102.76 155.02C104.66 149.05 105.71 145.74 105.92 145.08C107.73 139.21 109.53 133.34 110.89 127.92C111.79 132.88 113.6 138.76 115.41 145.08C115.62 145.77 116.67 149.23 118.57 155.47L102.76 155.47L102.76 155.02Z" id="a1TLgwEN8i"></path><path d="M198.06 107.59C187.76 120.06 182.04 126.98 180.9 128.37C179.09 130.63 176.83 133.34 174.57 137.4C174.57 137.04 174.57 135.23 174.57 131.98L174.57 126.56L174.57 107.59L156.06 107.59L156.06 183.02L174.57 183.02L174.57 159.53L182.25 151.4L201.22 183.02L224.26 183.02L194.9 137.4L221.09 107.59L198.06 107.59Z" id="encktoc6w"></path><path d="M225.61 183.02L244.58 183.02L249.1 169.02L273.49 169.02L278 183.02L296.97 183.02L270.32 107.59L252.26 107.59L225.61 183.02ZM253.16 155.02C255.06 149.05 256.11 145.74 256.32 145.08C258.13 139.21 259.94 133.34 261.29 127.92C262.19 132.88 264 138.76 265.81 145.08C266.02 145.77 267.07 149.23 268.97 155.47L253.16 155.47L253.16 155.02Z" id="a3WWbbRMr2"></path><path d="M366.53 159.53C366.08 157.27 365.17 155.47 364.27 153.66C362.46 150.5 360.2 148.69 357.04 147.79C360.2 146.43 362.91 143.72 365.17 140.56C366.98 137.4 368.33 133.34 368.33 129.27C368.33 121.14 365.17 115.27 358.85 111.2C355.24 108.95 349.82 107.59 342.59 107.59C340.27 107.59 328.68 107.59 307.81 107.59L307.81 183.02L326.33 183.02L326.33 155.02C332.56 155.02 336.03 155.02 336.72 155.02C340.78 155.02 343.94 155.92 345.75 157.73C347.56 159.53 348.91 162.69 349.36 167.21C350.27 176.24 350.72 181.66 351.62 183.02C352.89 183.02 359.21 183.02 370.59 183.02C370.32 182.48 370.17 182.18 370.14 182.12C368.79 180.76 368.33 178.05 367.88 173.53C367.43 166.31 366.98 161.34 366.53 159.53ZM324.98 140.56L324.98 122.95C332.56 122.95 336.78 122.95 337.62 122.95C345.3 122.95 348.91 125.66 348.91 131.53C349.36 137.85 345.75 140.56 338.07 140.56C336.33 140.56 331.96 140.56 324.98 140.56Z" id="aF7LCw6Uq"></path><path d="M446.92 107.59L420.28 183.02L439.24 183.02L443.76 169.02L468.15 169.02L472.67 183.02L491.64 183.02L465.89 107.59L446.92 107.59ZM448.73 155.02C450.63 149.05 451.68 145.74 451.89 145.08C453.7 139.21 455.5 133.34 456.86 127.92C457.76 132.88 459.57 138.76 461.38 145.08C461.59 145.77 462.64 149.23 464.54 155.47L448.73 155.47L448.73 155.02Z" id="a2ioohLYI"></path><path d="M76.11 67.85L76.11 8.68L67.98 8.68L67.98 75.52L107.73 75.52L107.73 67.85L76.11 67.85Z" id="bJQYVgvd8"></path><path d="M227.87 50.23C227.01 50.23 220.15 50.23 219.29 50.23C218.38 54.3 217.48 57.91 216.13 60.62C213.42 66.04 208.45 68.75 201.22 68.75C195.35 68.75 190.38 66.49 186.77 62.43C182.7 57.46 180.44 50.68 180.44 42.1C180.44 34.42 181.8 28.1 184.96 23.13C188.57 17.71 193.54 15 200.32 15C205.74 15 209.8 16.36 212.96 19.07C215.22 21.32 216.58 24.49 217.48 29C218.34 29 225.2 29 226.06 29C223.35 14.55 215.22 7.32 201.22 7.32C192.64 7.32 185.86 10.03 180.9 15.9C175.02 22.68 171.86 31.71 171.86 42.55C171.86 53.39 175.02 62.43 181.35 68.75C186.32 74.17 193.09 76.43 201.67 76.43C217.03 76.43 226.06 67.85 227.87 50.23Z" id="dhgOJKKnu"></path><path d="M264.9 75.52L264.9 16.36L285.68 16.36L285.68 8.68L235.55 8.68L235.55 16.36L256.77 16.36L256.77 75.52L264.9 75.52Z" id="b189WCLf1"></path><path d="M336.72 52.94C337.17 54.3 337.62 55.65 337.62 56.1C337.62 57.14 337.62 65.45 337.62 66.49C337.62 69.65 338.07 72.81 339.43 75.52C340.09 75.52 343.4 75.52 349.36 75.52C349.36 74.17 349.36 73.42 349.36 73.27C348.01 72.36 346.65 71.01 346.2 69.2C345.75 67.39 345.3 64.68 345.3 59.72C345.3 53.39 344.4 49.33 343.04 47.07C341.69 45.26 339.43 43.46 336.72 42.1C340.33 40.29 343.04 38.04 344.4 35.78C345.75 33.07 346.65 30.36 346.65 26.29C346.65 20.87 345.3 16.81 342.14 13.65C338.98 10.03 333.56 8.23 326.78 8.23C324.82 8.23 315.04 8.23 297.42 8.23L297.42 75.07L305.55 75.07L305.55 46.17C318.29 46.17 325.37 46.17 326.78 46.17C330.85 46.62 333.56 47.97 335.36 49.78C335.82 50.23 336.27 51.59 336.72 52.94ZM306.01 39.39L306.01 16.36C317.93 16.36 324.55 16.36 325.88 16.36C334.46 16.36 338.53 19.97 338.53 27.65C338.53 35.33 334.46 38.94 325.88 38.94C324.55 38.94 317.93 38.94 306.01 38.94L306.01 39.39Z" id="a1mquVgEE"></path><path d="M55.34 8.68C55.34 8.68 55.34 8.68 55.34 8.68C55.34 13.29 55.34 15.84 55.34 16.36C55.34 16.36 55.34 16.36 55.34 16.36C27.96 16.36 12.76 16.36 9.72 16.36C9.72 16.36 9.72 16.36 9.72 16.36C9.72 11.75 9.72 9.19 9.72 8.68C9.72 8.68 9.72 8.68 9.72 8.68C37.09 8.68 52.29 8.68 55.34 8.68Z" id="a31YHnfNrJ"></path><path d="M377.82 40.75C377.82 53.39 387.76 63.33 399.5 63.33C411.24 63.33 421.18 53.39 421.18 40.75C421.18 28.55 411.24 18.16 399.5 18.16C387.76 18.16 377.82 28.1 377.82 40.75ZM382.34 40.75C382.34 30.81 390.01 22.68 399.5 22.68C408.98 22.68 416.66 30.81 416.66 40.75C416.66 50.68 408.98 58.81 399.5 58.81C390.01 58.81 382.34 50.68 382.34 40.75Z" id="cwHrIXxrL"></path><path d="M429.76 50.23C430.27 50.23 432.83 50.23 437.44 50.23L437.44 31.71C432.83 31.71 430.27 31.71 429.76 31.71C429.31 29.45 428.41 27.2 427.05 24.94C427.41 24.55 429.22 22.59 432.47 19.07L419.82 5.97C416.57 9.49 414.76 11.45 414.4 11.84C412.6 10.48 410.34 9.58 408.08 9.13C408.08 8.59 408.08 5.88 408.08 1L390.47 1C390.47 5.88 390.47 8.59 390.47 9.13C388.21 9.58 385.95 10.94 384.14 11.84C383.78 11.45 381.97 9.49 378.72 5.97L366.08 19.07C369.33 22.59 371.13 24.55 371.5 24.94C370.59 27.2 369.69 29.45 368.79 31.71C368.27 31.71 365.71 31.71 361.11 31.71L361.11 50.23C365.71 50.23 368.27 50.23 368.79 50.23C369.24 52.49 370.14 54.75 371.5 57.01C371.13 57.4 369.33 59.35 366.08 62.88L378.72 75.98C381.97 72.45 383.78 70.5 384.14 70.1C385.95 71.46 388.21 72.36 390.47 72.81C390.47 73.36 390.47 76.07 390.47 80.94L408.08 80.94C408.08 76.07 408.08 73.36 408.08 72.81C410.34 72.36 412.6 71.01 414.4 70.1C414.76 70.5 416.57 72.45 419.82 75.98L432.47 62.88L427.05 57.01C428.25 53.99 429.16 51.74 429.76 50.23ZM414.86 64.23C414.04 64.77 413.59 65.08 413.5 65.14C410.79 66.94 408.08 67.85 405.37 68.75C405.25 68.78 404.65 68.93 403.56 69.2L403.56 76.43L394.98 76.43L394.98 69.2C393.9 68.93 393.3 68.78 393.18 68.75C390.47 67.85 387.3 66.94 385.05 65.14C384.93 65.08 384.32 64.77 383.24 64.23L378.27 69.2L371.95 62.88L376.92 57.91C376.37 57.1 376.07 56.64 376.01 56.55C374.21 53.84 373.3 51.13 372.4 47.97C372.37 47.85 372.22 47.25 371.95 46.17L365.17 46.17L365.17 37.13L371.95 37.13C372.22 36.05 372.37 35.45 372.4 35.33C372.85 32.16 374.21 29.45 376.01 26.74C376.07 26.65 376.37 26.2 376.92 25.39L371.95 20.42L378.27 14.1L383.24 19.07C384.05 18.52 384.5 18.22 384.59 18.16C387.3 16.36 390.01 15.45 392.72 14.55C392.84 14.52 393.45 14.37 394.53 14.1L394.53 6.87L403.11 6.87L403.11 14.1C404.2 14.37 404.8 14.52 404.92 14.55C407.63 15.45 410.79 16.36 413.05 18.16C413.14 18.22 413.59 18.52 414.4 19.07L419.37 14.1L425.7 20.42L420.73 25.39C421.27 26.2 421.57 26.65 421.63 26.74C423.44 29.45 424.34 32.16 425.24 35.33C425.27 35.45 425.42 36.05 425.7 37.13L432.47 37.13L432.47 46.17L425.7 46.17C425.42 47.25 425.27 47.85 425.24 47.97C424.79 51.13 423.44 53.84 421.63 56.55C421.57 56.64 421.27 57.1 420.73 57.91L425.7 62.88L419.82 69.2L414.86 64.23Z" id="a1fA4Vfmi1"></path><path d="M405.37 34.87C404.47 33.97 404.47 32.62 405.37 32.16C405.49 32.04 406.09 31.44 407.18 30.36L404.02 27.2C402.93 28.28 402.33 28.88 402.21 29C400.4 31.26 399.95 33.97 400.85 36.68C400.27 37.31 395.57 42.37 394.98 43C392.72 41.65 389.56 42.1 387.76 44.36C387.64 44.48 387.03 45.08 385.95 46.17L389.11 49.33C390.19 48.24 390.8 47.64 390.92 47.52C391.37 47.07 391.82 47.07 392.27 47.07C392.72 47.07 393.18 47.07 393.63 47.52C394.08 47.97 394.08 48.42 394.08 48.88C394.08 49.33 394.08 49.78 393.63 50.23C393.51 50.35 392.9 50.95 391.82 52.04L394.98 55.2C396.07 54.12 396.67 53.51 396.79 53.39C398.6 51.13 399.05 48.42 398.14 45.71C398.73 45.08 403.43 40.02 404.02 39.39C404.92 39.84 405.82 39.84 406.73 39.84C408.53 39.84 409.89 39.39 411.24 38.04C411.36 37.92 411.96 37.31 413.05 36.23L409.89 33.07L408.08 34.87C406.88 35.48 405.97 35.48 405.37 34.87Z" id="aIodI06TX"></path><path d="M166.89 8.68C166.89 8.68 166.89 8.68 166.89 8.68C166.89 13.29 166.89 15.84 166.89 16.36C166.89 16.36 166.89 16.36 166.89 16.36C139.52 16.36 124.32 16.36 121.28 16.36C121.28 16.36 121.28 16.36 121.28 16.36C121.28 11.75 121.28 9.19 121.28 8.68C121.28 8.68 121.28 8.68 121.28 8.68C148.65 8.68 163.85 8.68 166.89 8.68Z" id="gauxsnEby"></path><path d="M129.41 67.85L129.41 73.27L121.28 73.27L121.28 67.85L121.28 67.85L121.28 75.52L167.35 75.52L167.35 67.85L129.41 67.85Z" id="j5OX2VK5a7"></path><path d="M129.41 67.85L129.41 45.26L121.73 45.26L121.73 38.04L121.28 38.04L121.28 67.85L121.28 73.27L129.41 73.27L129.41 67.85Z" id="bfdxjrrce"></path><path d="M164.18 45.26L164.18 37.58L121.73 37.58L121.73 38.04L121.73 45.26L129.41 45.26L164.18 45.26Z" id="b59Q7OxXGf"></path><path d="M17.4 68.3L17.4 45.26L9.72 45.26L9.72 38.04L9.72 38.04L9.72 68.3L9.72 68.3L9.72 75.98L55.34 75.98L55.34 68.3L17.4 68.3Z" id="e27n24atg"></path><path d="M52.63 45.26L52.63 38.04L9.72 38.04L9.72 38.04L9.72 45.26L17.4 45.26L52.63 45.26Z" id="cmHpnJHnn"></path><path d="M404.92 178.5C404.92 179.41 405.37 179.86 406.27 180.31C406.27 178.64 406.27 165.27 406.27 163.6C405.37 164.05 404.92 164.5 404.92 164.95C404.92 167.66 404.92 177.15 404.92 178.5Z" id="aM9YULMyB"></path><path d="M397.69 106.69C397.69 109.13 397.69 121.32 397.69 143.27L400.4 143.27C400.4 121.32 400.4 109.13 400.4 106.69C400.4 106.69 400.4 106.24 400.4 106.24C400.52 106 401.12 104.79 402.21 102.62L400.4 94.94L397.69 94.94L395.89 102.62L397.69 106.69C397.69 106.69 397.69 106.69 397.69 106.69Z" id="dqYRVtBxi"></path><path d="M405.37 146.89C405.82 146.89 405.82 146.89 405.82 146.43C405.82 146.39 405.82 146.03 405.82 145.98C405.82 145.98 405.37 145.53 405.37 145.53C404.15 145.53 394.4 145.53 393.18 145.53C392.72 145.53 392.72 145.53 392.72 145.98C392.72 146.03 392.72 146.39 392.72 146.43C392.72 146.89 392.72 146.89 393.18 146.89C395.61 146.89 404.15 146.89 405.37 146.89Z" id="gTyooEZM"></path><path d="M392.72 180.76C393.63 180.31 394.08 179.86 394.08 178.95C394.08 177.6 394.08 166.76 394.08 165.4C394.08 164.5 393.63 163.6 392.72 163.6C392.72 167.03 392.72 179.04 392.72 180.76Z" id="h1zLcwsUVe"></path><path d="M401.76 178.95C401.76 177.6 401.76 166.76 401.76 165.4C401.76 163.6 403.56 161.79 406.27 161.34C406.27 160.44 405.37 159.53 404.47 159.08C402.66 157.73 401.31 155.92 400.85 154.11C400.85 152.76 400.85 151.4 401.76 150.05C401.22 150.05 396.88 150.05 396.34 150.05C397.24 151.4 397.69 152.76 397.69 154.56C397.24 156.37 396.34 158.18 394.53 159.53C393.63 160.44 393.18 160.89 392.72 161.79C395.43 162.24 397.24 164.05 397.24 165.86C397.24 167.21 397.24 178.05 397.24 179.41C397.24 181.21 395.43 183.02 392.72 183.47C392.72 186.18 395.89 187.99 399.5 187.99C403.11 187.53 405.82 185.73 406.27 183.02C403.56 182.57 401.76 180.76 401.76 178.95Z" id="c6rzTzKZP"></path><path d="M406.73 157.27C404.92 155.92 404.02 154.56 404.02 152.76C404.02 151.4 404.47 150.05 405.82 149.14C407.63 149.14 408.98 147.79 408.98 146.43C408.98 146.39 408.98 146.03 408.98 145.98C408.98 144.63 407.18 143.27 405.37 143.27C405.25 143.27 404.65 143.27 403.56 143.27L403.56 107.14C404.65 104.7 405.25 103.35 405.37 103.07C405.37 103.07 405.37 102.62 405.37 102.62C405.14 101.72 403.34 94.49 403.11 93.59C403.11 93.14 402.21 92.69 401.76 92.69C401.26 92.69 397.29 92.69 396.79 92.69C395.89 92.69 395.43 93.14 395.43 93.59C395.28 94.19 394.53 97.2 393.18 102.62C393.18 102.62 393.18 102.62 393.18 102.62C393.18 103.07 394.53 105.33 394.98 106.69C394.98 109.1 394.98 121.14 394.98 142.82C393.9 142.82 393.3 142.82 393.18 142.82C390.92 142.82 389.56 144.18 389.56 145.53C389.56 145.58 389.56 145.94 389.56 145.98C389.56 147.34 390.92 148.24 392.72 148.69C394.08 149.6 394.98 150.95 394.53 152.76C394.53 154.11 393.63 155.47 392.27 156.82C392.27 156.82 392.27 156.82 392.27 156.82C390.92 158.18 390.01 159.98 390.01 161.34C390.01 163.46 390.01 180.44 390.01 182.57C390.01 186.63 394.53 189.79 399.95 189.79C402.21 189.79 404.92 188.89 406.27 187.99C408.08 186.63 408.98 184.82 408.98 182.57C408.98 180.44 408.98 163.46 408.98 161.34C409.44 159.98 408.53 158.18 406.73 157.27C406.73 157.27 406.73 157.27 406.73 157.27ZM402.21 102.62C401.12 104.79 400.52 106 400.4 106.24C400.4 106.24 400.4 106.69 400.4 106.69C400.4 109.13 400.4 121.32 400.4 143.27L397.69 143.27C397.69 121.32 397.69 109.13 397.69 106.69C397.69 106.69 397.69 106.24 397.69 106.24C397.57 106 396.97 104.79 395.89 102.62L397.69 94.94L400.4 94.94L402.21 102.62ZM393.18 145.53C394.4 145.53 404.15 145.53 405.37 145.53C405.82 145.53 405.82 145.53 405.82 145.98C405.82 146.03 405.82 146.39 405.82 146.43C405.82 146.43 405.37 146.89 405.37 146.89C404.15 146.89 394.4 146.89 393.18 146.89C392.72 146.89 392.72 146.89 392.72 145.98C392.72 145.98 392.72 145.98 392.72 145.98C392.96 145.74 393.12 145.59 393.18 145.53ZM404.92 178.95C404.92 177.6 404.92 166.76 404.92 165.4C404.92 164.5 405.37 164.05 406.27 163.6C406.27 164.74 406.27 170.46 406.27 180.76C405.37 180.16 404.92 179.56 404.92 178.95ZM392.72 163.6C393.63 164.05 394.08 164.5 394.08 165.4C394.08 166.76 394.08 177.6 394.08 178.95C394.08 179.41 393.63 180.31 392.72 180.76C392.72 177.33 392.72 165.31 392.72 163.6ZM397.24 178.95C397.24 177.6 397.24 166.76 397.24 165.4C397.24 163.6 395.43 161.79 392.72 161.34C392.72 160.44 393.63 159.53 394.53 159.08C396.34 157.73 397.69 155.92 397.69 154.11C397.69 152.76 397.24 150.95 396.34 149.6C396.88 149.6 401.22 149.6 401.76 149.6C400.85 150.95 400.4 152.31 400.85 153.66C401.31 155.47 402.21 157.27 404.47 158.63C405.37 159.53 405.82 159.98 406.27 160.89C403.56 161.34 401.76 163.15 401.76 164.95C401.76 166.31 401.76 177.15 401.76 178.5C401.76 180.31 403.56 182.12 406.27 182.57C406.27 185.28 403.56 187.08 399.95 187.08C395.89 187.53 392.72 185.73 392.72 183.02C395.43 182.57 397.24 180.76 397.24 178.95Z" id="f6VJEY1kYm"></path></defs><g><g><g><use xlink:href="#bMaVn8xwi" opacity="1" fill="#000000" fill-opacity="0"></use><g><use xlink:href="#bMaVn8xwi" opacity="1" fill-opacity="0" stroke="#000000" stroke-width="1" stroke-opacity="0"></use></g></g><g><use xlink:href="#bSCdb0Hg" opacity="1" fill="#000000" fill-opacity="0"></use><g><use xlink:href="#bSCdb0Hg" opacity="1" fill-opacity="0" stroke="#000000" stroke-width="1" stroke-opacity="0"></use></g></g><g><use xlink:href="#i8cMLS6YDc" opacity="1" fill="#000000" fill-opacity="0"></use><g><use xlink:href="#i8cMLS6YDc" opacity="1" fill-opacity="0" stroke="#000000" stroke-width="1" stroke-opacity="0"></use></g></g><g><use xlink:href="#adisLtU7T" opacity="1" fill="#000000" fill-opacity="0"></use><g><use xlink:href="#adisLtU7T" opacity="1" fill-opacity="0" stroke="#000000" stroke-width="1" stroke-opacity="0"></use></g></g><g><use xlink:href="#ajYoj5GWG" opacity="1" fill="#000000" fill-opacity="0"></use><g><use xlink:href="#ajYoj5GWG" opacity="1" fill-opacity="0" stroke="#000000" stroke-width="1" stroke-opacity="0"></use></g></g><g><use xlink:href="#bhiYmN8ll" opacity="1" fill="#000000" fill-opacity="0"></use><g><use xlink:href="#bhiYmN8ll" opacity="1" fill-opacity="0" stroke="#000000" stroke-width="1" stroke-opacity="0"></use></g></g><g><use xlink:href="#ezUFEXNfj" opacity="1" fill="#000000" fill-opacity="0"></use><g><use xlink:href="#ezUFEXNfj" opacity="1" fill-opacity="0" stroke="#000000" stroke-width="1" stroke-opacity="0"></use></g></g><g><use xlink:href="#hezqXgyp8" opacity="1" fill="#ffffff" fill-opacity="1"></use><g><use xlink:href="#hezqXgyp8" opacity="1" fill-opacity="0" stroke="#000000" stroke-width="1" stroke-opacity="0"></use></g></g><g><use xlink:href="#a1TLgwEN8i" opacity="1" fill="#ffffff" fill-opacity="1"></use><g><use xlink:href="#a1TLgwEN8i" opacity="1" fill-opacity="0" stroke="#000000" stroke-width="1" stroke-opacity="0"></use></g></g><g><use xlink:href="#encktoc6w" opacity="1" fill="#ffffff" fill-opacity="1"></use><g><use xlink:href="#encktoc6w" opacity="1" fill-opacity="0" stroke="#000000" stroke-width="1" stroke-opacity="0"></use></g></g><g><use xlink:href="#a3WWbbRMr2" opacity="1" fill="#ffffff" fill-opacity="1"></use><g><use xlink:href="#a3WWbbRMr2" opacity="1" fill-opacity="0" stroke="#000000" stroke-width="1" stroke-opacity="0"></use></g></g><g><use xlink:href="#aF7LCw6Uq" opacity="1" fill="#ffffff" fill-opacity="1"></use><g><use xlink:href="#aF7LCw6Uq" opacity="1" fill-opacity="0" stroke="#000000" stroke-width="1" stroke-opacity="0"></use></g></g><g><use xlink:href="#a2ioohLYI" opacity="1" fill="#ffffff" fill-opacity="1"></use><g><use xlink:href="#a2ioohLYI" opacity="1" fill-opacity="0" stroke="#000000" stroke-width="1" stroke-opacity="0"></use></g></g><g><use xlink:href="#bJQYVgvd8" opacity="1" fill="#ffffff" fill-opacity="1"></use><g><use xlink:href="#bJQYVgvd8" opacity="1" fill-opacity="0" stroke="#000000" stroke-width="1" stroke-opacity="0"></use></g></g><g><use xlink:href="#dhgOJKKnu" opacity="1" fill="#ffffff" fill-opacity="1"></use><g><use xlink:href="#dhgOJKKnu" opacity="1" fill-opacity="0" stroke="#000000" stroke-width="1" stroke-opacity="0"></use></g></g><g><use xlink:href="#b189WCLf1" opacity="1" fill="#ffffff" fill-opacity="1"></use><g><use xlink:href="#b189WCLf1" opacity="1" fill-opacity="0" stroke="#000000" stroke-width="1" stroke-opacity="0"></use></g></g><g><use xlink:href="#a1mquVgEE" opacity="1" fill="#ffffff" fill-opacity="1"></use><g><use xlink:href="#a1mquVgEE" opacity="1" fill-opacity="0" stroke="#000000" stroke-width="1" stroke-opacity="0"></use></g></g><g><use xlink:href="#a31YHnfNrJ" opacity="1" fill="#ffffff" fill-opacity="1"></use><g><use xlink:href="#a31YHnfNrJ" opacity="1" fill-opacity="0" stroke="#000000" stroke-width="1" stroke-opacity="0"></use></g></g><g><use xlink:href="#cwHrIXxrL" opacity="1" fill="#ffffff" fill-opacity="1"></use><g><use xlink:href="#cwHrIXxrL" opacity="1" fill-opacity="0" stroke="#000000" stroke-width="1" stroke-opacity="0"></use></g></g><g><use xlink:href="#a1fA4Vfmi1" opacity="1" fill="#ffffff" fill-opacity="1"></use><g><use xlink:href="#a1fA4Vfmi1" opacity="1" fill-opacity="0" stroke="#000000" stroke-width="1" stroke-opacity="0"></use></g></g><g><use xlink:href="#aIodI06TX" opacity="1" fill="#ffffff" fill-opacity="1"></use><g><use xlink:href="#aIodI06TX" opacity="1" fill-opacity="0" stroke="#000000" stroke-width="1" stroke-opacity="0"></use></g></g><g><use xlink:href="#gauxsnEby" opacity="1" fill="#ffffff" fill-opacity="1"></use><g><use xlink:href="#gauxsnEby" opacity="1" fill-opacity="0" stroke="#000000" stroke-width="1" stroke-opacity="0"></use></g></g><g><use xlink:href="#j5OX2VK5a7" opacity="1" fill="#ffffff" fill-opacity="1"></use><g><use xlink:href="#j5OX2VK5a7" opacity="1" fill-opacity="0" stroke="#000000" stroke-width="1" stroke-opacity="0"></use></g></g><g><use xlink:href="#bfdxjrrce" opacity="1" fill="#ffffff" fill-opacity="1"></use><g><use xlink:href="#bfdxjrrce" opacity="1" fill-opacity="0" stroke="#000000" stroke-width="1" stroke-opacity="0"></use></g></g><g><use xlink:href="#b59Q7OxXGf" opacity="1" fill="#ffffff" fill-opacity="1"></use><g><use xlink:href="#b59Q7OxXGf" opacity="1" fill-opacity="0" stroke="#000000" stroke-width="1" stroke-opacity="0"></use></g></g><g><use xlink:href="#e27n24atg" opacity="1" fill="#ffffff" fill-opacity="1"></use><g><use xlink:href="#e27n24atg" opacity="1" fill-opacity="0" stroke="#000000" stroke-width="1" stroke-opacity="0"></use></g></g><g><use xlink:href="#cmHpnJHnn" opacity="1" fill="#ffffff" fill-opacity="1"></use><g><use xlink:href="#cmHpnJHnn" opacity="1" fill-opacity="0" stroke="#000000" stroke-width="1" stroke-opacity="0"></use></g></g><g><use xlink:href="#aM9YULMyB" opacity="1" fill="#000000" fill-opacity="0"></use><g><use xlink:href="#aM9YULMyB" opacity="1" fill-opacity="0" stroke="#000000" stroke-width="1" stroke-opacity="0"></use></g></g><g><use xlink:href="#dqYRVtBxi" opacity="1" fill="#000000" fill-opacity="0"></use><g><use xlink:href="#dqYRVtBxi" opacity="1" fill-opacity="0" stroke="#000000" stroke-width="1" stroke-opacity="0"></use></g></g><g><use xlink:href="#gTyooEZM" opacity="1" fill="#000000" fill-opacity="0"></use><g><use xlink:href="#gTyooEZM" opacity="1" fill-opacity="0" stroke="#000000" stroke-width="1" stroke-opacity="0"></use></g></g><g><use xlink:href="#h1zLcwsUVe" opacity="1" fill="#000000" fill-opacity="0"></use><g><use xlink:href="#h1zLcwsUVe" opacity="1" fill-opacity="0" stroke="#000000" stroke-width="1" stroke-opacity="0"></use></g></g><g><use xlink:href="#c6rzTzKZP" opacity="1" fill="#000000" fill-opacity="0"></use><g><use xlink:href="#c6rzTzKZP" opacity="1" fill-opacity="0" stroke="#000000" stroke-width="1" stroke-opacity="0"></use></g></g><g><use xlink:href="#f6VJEY1kYm" opacity="1" fill="#ffffff" fill-opacity="1"></use><g><use xlink:href="#f6VJEY1kYm" opacity="1" fill-opacity="0" stroke="#000000" stroke-width="1" stroke-opacity="0"></use></g></g></g></g></svg>